<?xml version="1.0" encoding="UTF-8" standalone="no"?>
<!-- Created with Inkscape (http://www.inkscape.org/) -->

<svg
   xmlns:dc="http://purl.org/dc/elements/1.1/"
   xmlns:cc="http://creativecommons.org/ns#"
   xmlns:rdf="http://www.w3.org/1999/02/22-rdf-syntax-ns#"
   xmlns:svg="http://www.w3.org/2000/svg"
   xmlns="http://www.w3.org/2000/svg"
   xmlns:sodipodi="http://sodipodi.sourceforge.net/DTD/sodipodi-0.dtd"
   xmlns:inkscape="http://www.inkscape.org/namespaces/inkscape"
   version="1.1"
   id="svg2"
   xml:space="preserve"
   width="656"
   height="272"
   viewBox="0 0 656 272"
   sodipodi:docname="HonestyTS.svg"
   inkscape:version="0.92.5 (2060ec1f9f, 2020-04-08)"><metadata
     id="metadata8"><rdf:RDF><cc:Work
         rdf:about=""><dc:format>image/svg+xml</dc:format><dc:type
           rdf:resource="http://purl.org/dc/dcmitype/StillImage" /><dc:title></dc:title></cc:Work></rdf:RDF></metadata><defs
     id="defs6"><clipPath
       clipPathUnits="userSpaceOnUse"
       id="clipPath20"><path
         d="M 0,0 H 504 V 216 H 0 Z"
         id="path18"
         inkscape:connector-curvature="0" /></clipPath><clipPath
       clipPathUnits="userSpaceOnUse"
       id="clipPath46"><path
         d="M 0,0 H 504 V 216 H 0 Z"
         id="path44"
         inkscape:connector-curvature="0" /></clipPath><clipPath
       clipPathUnits="userSpaceOnUse"
       id="clipPath58"><path
         d="M 33.73,31.91 H 395.32 V 210.52 H 33.73 Z"
         id="path56"
         inkscape:connector-curvature="0" /></clipPath></defs><sodipodi:namedview
     pagecolor="#ffffff"
     bordercolor="#666666"
     borderopacity="1"
     objecttolerance="10"
     gridtolerance="10"
     guidetolerance="10"
     inkscape:pageopacity="0"
     inkscape:pageshadow="2"
     inkscape:window-width="2560"
     inkscape:window-height="1305"
     id="namedview4"
     showgrid="false"
     inkscape:zoom="2.0307762"
     inkscape:cx="407.6238"
     inkscape:cy="130.7129"
     inkscape:window-x="2560"
     inkscape:window-y="0"
     inkscape:window-maximized="1"
     inkscape:current-layer="g10" /><g
     id="g10"
     inkscape:groupmode="layer"
     inkscape:label="books1-1"
     transform="matrix(1.3333333,0,0,-1.3333333,0,272)"><path
       inkscape:connector-curvature="0"
       id="path60"
       style="fill:#ffffff;fill-opacity:1;fill-rule:nonzero;stroke:none"
       d="M 32.73,24.91 H 394.32 V 203.52 H 32.73 Z" /><path
       inkscape:connector-curvature="0"
       id="path62"
       style="fill:none;stroke:#ebebeb;stroke-width:0.52999997;stroke-linecap:butt;stroke-linejoin:round;stroke-miterlimit:10;stroke-dasharray:none;stroke-opacity:1"
       d="M 32.73,40.13 H 394.32" /><path
       inkscape:connector-curvature="0"
       id="path64"
       style="fill:none;stroke:#ebebeb;stroke-width:0.52999997;stroke-linecap:butt;stroke-linejoin:round;stroke-miterlimit:10;stroke-dasharray:none;stroke-opacity:1"
       d="M 32.73,75.14 H 394.32" /><path
       inkscape:connector-curvature="0"
       id="path66"
       style="fill:none;stroke:#ebebeb;stroke-width:0.52999997;stroke-linecap:butt;stroke-linejoin:round;stroke-miterlimit:10;stroke-dasharray:none;stroke-opacity:1"
       d="M 32.73,110.15 H 394.32" /><path
       inkscape:connector-curvature="0"
       id="path68"
       style="fill:none;stroke:#ebebeb;stroke-width:0.52999997;stroke-linecap:butt;stroke-linejoin:round;stroke-miterlimit:10;stroke-dasharray:none;stroke-opacity:1"
       d="M 32.73,145.16 H 394.32" /><path
       inkscape:connector-curvature="0"
       id="path70"
       style="fill:none;stroke:#ebebeb;stroke-width:0.52999997;stroke-linecap:butt;stroke-linejoin:round;stroke-miterlimit:10;stroke-dasharray:none;stroke-opacity:1"
       d="M 32.73,180.17 H 394.32" /><path
       inkscape:connector-curvature="0"
       id="path72"
       style="fill:none;stroke:#ebebeb;stroke-width:0.52999997;stroke-linecap:butt;stroke-linejoin:round;stroke-miterlimit:10;stroke-dasharray:none;stroke-opacity:1"
       d="M 82.71,24.91 V 203.52" /><path
       inkscape:connector-curvature="0"
       id="path74"
       style="fill:none;stroke:#ebebeb;stroke-width:0.52999997;stroke-linecap:butt;stroke-linejoin:round;stroke-miterlimit:10;stroke-dasharray:none;stroke-opacity:1"
       d="M 149.79,24.91 V 203.52" /><path
       inkscape:connector-curvature="0"
       id="path76"
       style="fill:none;stroke:#ebebeb;stroke-width:0.52999997;stroke-linecap:butt;stroke-linejoin:round;stroke-miterlimit:10;stroke-dasharray:none;stroke-opacity:1"
       d="M 216.88,24.91 V 203.52" /><path
       inkscape:connector-curvature="0"
       id="path78"
       style="fill:none;stroke:#ebebeb;stroke-width:0.52999997;stroke-linecap:butt;stroke-linejoin:round;stroke-miterlimit:10;stroke-dasharray:none;stroke-opacity:1"
       d="M 283.96,24.91 V 203.52" /><path
       inkscape:connector-curvature="0"
       id="path80"
       style="fill:none;stroke:#ebebeb;stroke-width:0.52999997;stroke-linecap:butt;stroke-linejoin:round;stroke-miterlimit:10;stroke-dasharray:none;stroke-opacity:1"
       d="M 351.05,24.91 V 203.52" /><path
       inkscape:connector-curvature="0"
       id="path82"
       style="fill:none;stroke:#ebebeb;stroke-width:1.07000005;stroke-linecap:butt;stroke-linejoin:round;stroke-miterlimit:10;stroke-dasharray:none;stroke-opacity:1"
       d="M 32.73,57.63 H 394.32" /><path
       inkscape:connector-curvature="0"
       id="path84"
       style="fill:none;stroke:#ebebeb;stroke-width:1.07000005;stroke-linecap:butt;stroke-linejoin:round;stroke-miterlimit:10;stroke-dasharray:none;stroke-opacity:1"
       d="M 32.73,92.64 H 394.32" /><path
       inkscape:connector-curvature="0"
       id="path86"
       style="fill:none;stroke:#ebebeb;stroke-width:1.07000005;stroke-linecap:butt;stroke-linejoin:round;stroke-miterlimit:10;stroke-dasharray:none;stroke-opacity:1"
       d="M 32.73,127.65 H 394.32" /><path
       inkscape:connector-curvature="0"
       id="path88"
       style="fill:none;stroke:#ebebeb;stroke-width:1.07000005;stroke-linecap:butt;stroke-linejoin:round;stroke-miterlimit:10;stroke-dasharray:none;stroke-opacity:1"
       d="M 32.73,162.66 H 394.32" /><path
       inkscape:connector-curvature="0"
       id="path90"
       style="fill:none;stroke:#ebebeb;stroke-width:1.07000005;stroke-linecap:butt;stroke-linejoin:round;stroke-miterlimit:10;stroke-dasharray:none;stroke-opacity:1"
       d="M 32.73,197.67 H 394.32" /><path
       inkscape:connector-curvature="0"
       id="path92"
       style="fill:none;stroke:#ebebeb;stroke-width:1.07000005;stroke-linecap:butt;stroke-linejoin:round;stroke-miterlimit:10;stroke-dasharray:none;stroke-opacity:1"
       d="M 49.16,24.91 V 203.52" /><path
       inkscape:connector-curvature="0"
       id="path94"
       style="fill:none;stroke:#ebebeb;stroke-width:1.07000005;stroke-linecap:butt;stroke-linejoin:round;stroke-miterlimit:10;stroke-dasharray:none;stroke-opacity:1"
       d="M 116.25,24.91 V 203.52" /><path
       inkscape:connector-curvature="0"
       id="path96"
       style="fill:none;stroke:#ebebeb;stroke-width:1.07000005;stroke-linecap:butt;stroke-linejoin:round;stroke-miterlimit:10;stroke-dasharray:none;stroke-opacity:1"
       d="M 183.33,24.91 V 203.52" /><path
       inkscape:connector-curvature="0"
       id="path98"
       style="fill:none;stroke:#ebebeb;stroke-width:1.07000005;stroke-linecap:butt;stroke-linejoin:round;stroke-miterlimit:10;stroke-dasharray:none;stroke-opacity:1"
       d="M 250.42,24.91 V 203.52" /><path
       inkscape:connector-curvature="0"
       id="path100"
       style="fill:none;stroke:#ebebeb;stroke-width:1.07000005;stroke-linecap:butt;stroke-linejoin:round;stroke-miterlimit:10;stroke-dasharray:none;stroke-opacity:1"
       d="M 317.5,24.91 V 203.52" /><path
       inkscape:connector-curvature="0"
       id="path102"
       style="fill:none;stroke:#ebebeb;stroke-width:1.07000005;stroke-linecap:butt;stroke-linejoin:round;stroke-miterlimit:10;stroke-dasharray:none;stroke-opacity:1"
       d="M 384.59,24.91 V 203.52" /><path
       inkscape:connector-curvature="0"
       id="path104"
       style="fill:none;stroke:#8b0000;stroke-width:1.07000005;stroke-linecap:butt;stroke-linejoin:round;stroke-miterlimit:10;stroke-dasharray:none;stroke-opacity:1"
       d="m 62.58,104.42 6.71,-2.35 6.71,-1.84 6.71,-1.55 6.71,-0.78 6.7,-1.17 6.71,-0.43 6.71,-0.55 6.71,-0.08 6.71,0.08 6.71,0.37 6.7,0.19 6.71,0.97 6.71,0.94 6.71,1.4 6.71,0.62 6.71,1.02 6.71,0.85 6.7,0.89 6.71,0.12 6.71,1.28 6.71,0.58 6.71,1.45 6.71,1.98 6.71,2.49 6.7,2.8 6.71,5.23 6.71,4.46 6.71,4.6 6.71,5.63 6.71,5.72 6.7,3.95 6.71,3.62 6.71,3.36 6.71,3.23 6.71,6.36 6.71,6.01 6.71,7.98 6.7,4.36 6.71,3.73 6.71,3.45 6.71,3.14 6.71,0.38 6.71,4.02 6.71,2.47 6.7,-1.16" /><path
       inkscape:connector-curvature="0"
       id="path106"
       style="fill:none;stroke:#6495ed;stroke-width:1.07000005;stroke-linecap:butt;stroke-linejoin:round;stroke-miterlimit:10;stroke-dasharray:none;stroke-opacity:1"
       d="m 62.58,142.05 6.71,5.39 6.71,6.66 6.71,1.24 6.71,5.21 6.7,-1.54 6.71,-0.72 6.71,-1.85 6.71,1.33 6.71,-5.26 6.71,-3.45 6.7,-2.08 6.71,-3.26 6.71,-3.29 6.71,-1.11 6.71,-3.4 6.71,-2.92 6.71,-3.71 6.7,-1.93 6.71,-2.6 6.71,0.86 6.71,0.36 6.71,3.09 6.71,3.09 6.71,10.31 6.7,9.16 6.71,3.75 6.71,2.44 6.71,0.52 6.71,-4.44 6.71,-6.87 6.7,-4.99 6.71,-2.74 6.71,-5.9 6.71,-2.27 6.71,-5.08 6.71,-3.04 6.71,-16.37 6.7,-9.63 6.71,-9.45 6.71,-16.14 6.71,-15.11 6.71,-2.53 6.71,-9.71 6.71,-11.04 6.7,1.47" /><path
       inkscape:connector-curvature="0"
       id="path108"
       style="fill:none;stroke:#ffa500;stroke-width:1.07000005;stroke-linecap:butt;stroke-linejoin:round;stroke-miterlimit:10;stroke-dasharray:none;stroke-opacity:1"
       d="m 62.58,169.74 6.71,0.36 6.71,1.35 6.71,-0.31 6.71,2.03 6.7,0.36 6.71,1.11 6.71,-0.99 6.71,0.07 6.71,0.62 6.71,-2.81 6.7,-2.55 6.71,-1.91 6.71,-3.11 6.71,-5.67 6.71,-5.86 6.71,-4.56 6.71,-5.26 6.7,-4.58 6.71,-4.26 6.71,-2.63 6.71,-5.13 6.71,-3.72 6.71,-3.51 6.71,-0.49 6.7,-1.99 6.71,-3.28 6.71,-4.12 6.71,-3.33 6.71,-4.49 6.71,-1.7 6.7,-0.77 6.71,0.93 6.71,-1.58 6.71,-2.24 6.71,-6.96 6.71,-5.11 6.71,-9.59 6.7,5.21 6.71,18.02 6.71,-1.21 6.71,-2.21 6.71,3.74 6.71,-8.39 6.71,-16.72 6.7,4.59" /><path
       inkscape:connector-curvature="0"
       id="path110"
       style="fill:none;stroke:#333333;stroke-width:1.07000005;stroke-linecap:round;stroke-linejoin:round;stroke-miterlimit:10;stroke-dasharray:none;stroke-opacity:1"
       d="M 32.73,24.91 H 394.32 V 203.52 H 32.73 Z" /><text
       transform="scale(1,-1)"
       style="font-variant:normal;font-weight:normal;font-size:9px;font-family:Helvetica;-inkscape-font-specification:Helvetica;writing-mode:lr-tb;fill:#4d4d4d;fill-opacity:1;fill-rule:nonzero;stroke:none"
       id="text146"
       x="17.540001"
       y="-54.400002"><tspan
         x="17.540001 22.796"
         y="-54.400002"
         sodipodi:role="line"
         id="tspan144">−2</tspan></text>
<text
       transform="scale(1,-1)"
       style="font-variant:normal;font-weight:normal;font-size:9px;font-family:Helvetica;-inkscape-font-specification:Helvetica;writing-mode:lr-tb;fill:#4d4d4d;fill-opacity:1;fill-rule:nonzero;stroke:none"
       id="text150"
       x="17.540001"
       y="-89.410004"><tspan
         x="17.540001 22.796"
         y="-89.410004"
         sodipodi:role="line"
         id="tspan148">−1</tspan></text>
<text
       transform="scale(1,-1)"
       style="font-variant:normal;font-weight:normal;font-size:9px;font-family:Helvetica;-inkscape-font-specification:Helvetica;writing-mode:lr-tb;fill:#4d4d4d;fill-opacity:1;fill-rule:nonzero;stroke:none"
       id="text154"
       x="22.790001"
       y="-124.42"><tspan
         x="22.790001"
         y="-124.42"
         id="tspan152">0</tspan></text>
<text
       transform="scale(1,-1)"
       style="font-variant:normal;font-weight:normal;font-size:9px;font-family:Helvetica;-inkscape-font-specification:Helvetica;writing-mode:lr-tb;fill:#4d4d4d;fill-opacity:1;fill-rule:nonzero;stroke:none"
       id="text158"
       x="22.790001"
       y="-159.42999"><tspan
         x="22.790001"
         y="-159.42999"
         id="tspan156">1</tspan></text>
<text
       transform="scale(1,-1)"
       style="font-variant:normal;font-weight:normal;font-size:9px;font-family:Helvetica;-inkscape-font-specification:Helvetica;writing-mode:lr-tb;fill:#4d4d4d;fill-opacity:1;fill-rule:nonzero;stroke:none"
       id="text162"
       x="22.790001"
       y="-194.44"><tspan
         x="22.790001"
         y="-194.44"
         id="tspan160">2</tspan></text>
<path
       d="m 29.99,57.63 h 2.74"
       style="fill:none;stroke:#333333;stroke-width:1.07000005;stroke-linecap:butt;stroke-linejoin:round;stroke-miterlimit:10;stroke-dasharray:none;stroke-opacity:1"
       id="path168"
       inkscape:connector-curvature="0" /><path
       d="m 29.99,92.64 h 2.74"
       style="fill:none;stroke:#333333;stroke-width:1.07000005;stroke-linecap:butt;stroke-linejoin:round;stroke-miterlimit:10;stroke-dasharray:none;stroke-opacity:1"
       id="path170"
       inkscape:connector-curvature="0" /><path
       d="m 29.99,127.65 h 2.74"
       style="fill:none;stroke:#333333;stroke-width:1.07000005;stroke-linecap:butt;stroke-linejoin:round;stroke-miterlimit:10;stroke-dasharray:none;stroke-opacity:1"
       id="path172"
       inkscape:connector-curvature="0" /><path
       d="m 29.99,162.66 h 2.74"
       style="fill:none;stroke:#333333;stroke-width:1.07000005;stroke-linecap:butt;stroke-linejoin:round;stroke-miterlimit:10;stroke-dasharray:none;stroke-opacity:1"
       id="path174"
       inkscape:connector-curvature="0" /><path
       d="m 29.99,197.67 h 2.74"
       style="fill:none;stroke:#333333;stroke-width:1.07000005;stroke-linecap:butt;stroke-linejoin:round;stroke-miterlimit:10;stroke-dasharray:none;stroke-opacity:1"
       id="path176"
       inkscape:connector-curvature="0" /><path
       d="m 49.16,22.17 v 2.74"
       style="fill:none;stroke:#333333;stroke-width:1.07000005;stroke-linecap:butt;stroke-linejoin:round;stroke-miterlimit:10;stroke-dasharray:none;stroke-opacity:1"
       id="path198"
       inkscape:connector-curvature="0" /><path
       d="m 116.25,22.17 v 2.74"
       style="fill:none;stroke:#333333;stroke-width:1.07000005;stroke-linecap:butt;stroke-linejoin:round;stroke-miterlimit:10;stroke-dasharray:none;stroke-opacity:1"
       id="path200"
       inkscape:connector-curvature="0" /><path
       d="m 183.33,22.17 v 2.74"
       style="fill:none;stroke:#333333;stroke-width:1.07000005;stroke-linecap:butt;stroke-linejoin:round;stroke-miterlimit:10;stroke-dasharray:none;stroke-opacity:1"
       id="path202"
       inkscape:connector-curvature="0" /><path
       d="m 250.42,22.17 v 2.74"
       style="fill:none;stroke:#333333;stroke-width:1.07000005;stroke-linecap:butt;stroke-linejoin:round;stroke-miterlimit:10;stroke-dasharray:none;stroke-opacity:1"
       id="path204"
       inkscape:connector-curvature="0" /><path
       d="m 317.5,22.17 v 2.74"
       style="fill:none;stroke:#333333;stroke-width:1.07000005;stroke-linecap:butt;stroke-linejoin:round;stroke-miterlimit:10;stroke-dasharray:none;stroke-opacity:1"
       id="path206"
       inkscape:connector-curvature="0" /><path
       d="m 384.59,22.17 v 2.74"
       style="fill:none;stroke:#333333;stroke-width:1.07000005;stroke-linecap:butt;stroke-linejoin:round;stroke-miterlimit:10;stroke-dasharray:none;stroke-opacity:1"
       id="path208"
       inkscape:connector-curvature="0" /><text
       transform="scale(1,-1)"
       style="font-variant:normal;font-weight:normal;font-size:9px;font-family:Helvetica;-inkscape-font-specification:Helvetica;writing-mode:lr-tb;fill:#4d4d4d;fill-opacity:1;fill-rule:nonzero;stroke:none"
       id="text216"
       x="39.16"
       y="-13.52"><tspan
         x="39.16 44.164001 49.167999 54.172001"
         y="-13.52"
         sodipodi:role="line"
         id="tspan214">1970</tspan></text>
<text
       transform="scale(1,-1)"
       style="font-variant:normal;font-weight:normal;font-size:9px;font-family:Helvetica;-inkscape-font-specification:Helvetica;writing-mode:lr-tb;fill:#4d4d4d;fill-opacity:1;fill-rule:nonzero;stroke:none"
       id="text220"
       x="106.24"
       y="-13.52"><tspan
         x="106.24 111.244 116.248 121.252"
         y="-13.52"
         sodipodi:role="line"
         id="tspan218">1980</tspan></text>
<text
       transform="scale(1,-1)"
       style="font-variant:normal;font-weight:normal;font-size:9px;font-family:Helvetica;-inkscape-font-specification:Helvetica;writing-mode:lr-tb;fill:#4d4d4d;fill-opacity:1;fill-rule:nonzero;stroke:none"
       id="text224"
       x="173.33"
       y="-13.52"><tspan
         x="173.33 178.334 183.338 188.342"
         y="-13.52"
         sodipodi:role="line"
         id="tspan222">1990</tspan></text>
<text
       transform="scale(1,-1)"
       style="font-variant:normal;font-weight:normal;font-size:9px;font-family:Helvetica;-inkscape-font-specification:Helvetica;writing-mode:lr-tb;fill:#4d4d4d;fill-opacity:1;fill-rule:nonzero;stroke:none"
       id="text228"
       x="240.41"
       y="-13.52"><tspan
         x="240.41 245.414 250.418 255.422"
         y="-13.52"
         sodipodi:role="line"
         id="tspan226">2000</tspan></text>
<text
       transform="scale(1,-1)"
       style="font-variant:normal;font-weight:normal;font-size:9px;font-family:Helvetica;-inkscape-font-specification:Helvetica;writing-mode:lr-tb;fill:#4d4d4d;fill-opacity:1;fill-rule:nonzero;stroke:none"
       id="text232"
       x="307.5"
       y="-13.52"><tspan
         x="307.5 312.504 317.508 322.51199"
         y="-13.52"
         sodipodi:role="line"
         id="tspan230">2010</tspan></text>
<text
       transform="scale(1,-1)"
       style="font-variant:normal;font-weight:normal;font-size:9px;font-family:Helvetica;-inkscape-font-specification:Helvetica;writing-mode:lr-tb;fill:#4d4d4d;fill-opacity:1;fill-rule:nonzero;stroke:none"
       id="text236"
       x="374.57999"
       y="-13.52"><tspan
         x="374.57999 379.58401 384.58801 389.59201"
         y="-13.52"
         sodipodi:role="line"
         id="tspan234">2020</tspan></text>
<text
       transform="scale(1,-1)"
       style="font-variant:normal;font-weight:normal;font-size:11px;font-family:Helvetica;-inkscape-font-specification:Helvetica;writing-mode:lr-tb;fill:#000000;fill-opacity:1;fill-rule:nonzero;stroke:none"
       id="text252"
       x="202.67999"
       y="-0.89999998"><tspan
         x="202.67999 208.47701 214.593 220.709"
         y="-0.89999998"
         sodipodi:role="line"
         id="tspan250">Year</tspan></text>
<text
       transform="matrix(0,1,1,0,0,0)"
       style="font-variant:normal;font-weight:normal;font-size:11px;font-family:Helvetica;-inkscape-font-specification:Helvetica;writing-mode:lr-tb;fill:#000000;fill-opacity:1;fill-rule:nonzero;stroke:none"
       id="text260"
       x="65.610001"
       y="12.38"><tspan
         x="65.610001 73.552002 79.667999 85.167999 90.667999 96.783997 99.225998 105.342 111.458 114.516 117.574 121.237 127.353 133.46899 139.58499 145.701 151.817 157.317"
         y="12.38"
         sodipodi:role="line"
         id="tspan258">Rescaled frequency</tspan></text>
<path
       d="m 182.89391,32.343183 h 92.3646 v 57.896261 h -92.3646 z"
       style="fill:#ffffff;fill-opacity:1;fill-rule:nonzero;stroke:#000000;stroke-width:0.85878325;stroke-opacity:1"
       id="path278"
       inkscape:connector-curvature="0" /><path
       d="m 188.42121,68.795384 h 17.28 v 17.28 h -17.28 z"
       style="fill:#ffffff;fill-opacity:1;fill-rule:nonzero;stroke:none"
       id="path298"
       inkscape:connector-curvature="0" /><path
       d="m 190.15121,77.435384 h 13.83"
       style="fill:none;stroke:#8b0000;stroke-width:1.07000005;stroke-linecap:butt;stroke-linejoin:round;stroke-miterlimit:10;stroke-dasharray:none;stroke-opacity:1"
       id="path304"
       inkscape:connector-curvature="0" /><path
       d="m 188.42121,51.515384 h 17.28 v 17.28 h -17.28 z"
       style="fill:#ffffff;fill-opacity:1;fill-rule:nonzero;stroke:none"
       id="path310"
       inkscape:connector-curvature="0" /><path
       d="m 190.15121,60.155384 h 13.83"
       style="fill:none;stroke:#6495ed;stroke-width:1.07000005;stroke-linecap:butt;stroke-linejoin:round;stroke-miterlimit:10;stroke-dasharray:none;stroke-opacity:1"
       id="path316"
       inkscape:connector-curvature="0" /><path
       d="m 188.42121,34.235384 h 17.28 v 17.28 h -17.28 z"
       style="fill:#ffffff;fill-opacity:1;fill-rule:nonzero;stroke:none"
       id="path322"
       inkscape:connector-curvature="0" /><path
       d="m 190.15121,42.875384 h 13.83"
       style="fill:none;stroke:#ffa500;stroke-width:1.07000005;stroke-linecap:butt;stroke-linejoin:round;stroke-miterlimit:10;stroke-dasharray:none;stroke-opacity:1"
       id="path328"
       inkscape:connector-curvature="0" /><text
       transform="scale(1,-1)"
       style="font-variant:normal;font-weight:normal;font-size:9px;font-family:Helvetica;-inkscape-font-specification:Helvetica;writing-mode:lr-tb;fill:#000000;fill-opacity:1;fill-rule:nonzero;stroke:none"
       id="text340"
       x="211.18121"
       y="-74.205383"><tspan
         x="211.18121 217.1842 222.1882 224.18622 226.1842 231.1882"
         y="-74.205383"
         sodipodi:role="line"
         id="tspan338">Belief</tspan></text>
<text
       transform="scale(1,-1)"
       style="font-variant:normal;font-weight:normal;font-size:9px;font-family:Helvetica;-inkscape-font-specification:Helvetica;writing-mode:lr-tb;fill:#000000;fill-opacity:1;fill-rule:nonzero;stroke:none"
       id="text354"
       x="211.18121"
       y="-56.925381"><tspan
         x="211.18121 215.60019 218.73221 223.73621 226.23819"
         y="-56.925381"
         sodipodi:role="line"
         id="tspan352">Truth</tspan></text>
<text
       transform="scale(1,-1)"
       style="font-variant:normal;font-weight:normal;font-size:9px;font-family:Helvetica;-inkscape-font-specification:Helvetica;writing-mode:lr-tb;fill:#000000;fill-opacity:1;fill-rule:nonzero;stroke:none"
       id="text368"
       x="211.18121"
       y="-39.645382"><tspan
         x="211.18121 217.6792 222.6832 227.68719 232.69119 235.6882 240.1882 242.69022 247.69421 252.69821 257.70221 259.7002 264.70419"
         y="-39.645382"
         sodipodi:role="line"
         id="tspan366">Understanding</tspan></text>
</g></svg>